<svg width="20" height="20" viewBox="0 0 19 20" fill="none" xmlns="http://www.w3.org/2000/svg">
<path d="M4.38826 6.68269C4.36689 6.19516 4.47955 5.71097 4.71445 5.28086C4.95201 4.84461 5.29607 4.47293 5.71586 4.19908C6.13669 3.92494 6.60561 3.72962 7.09891 3.62299C7.3446 3.56752 7.59437 3.53113 7.84589 3.51417C8.10032 3.49817 8.33518 3.49977 8.58797 3.49337L11.5237 3.43096L14.4594 3.38135L14.2425 3.48697L15.4951 1.8483L16.7346 0.212835L17.0005 0.742521L12.4419 0.79533L7.88666 0.830535C7.15793 0.845775 6.43316 0.940234 5.72564 1.11218C5.02676 1.27959 4.35493 1.54133 3.72935 1.88991C3.11614 2.23531 2.57139 2.68633 2.12123 3.22132C1.67677 3.75193 1.34414 4.36386 1.14266 5.02162C0.948161 5.68706 0.882877 6.38244 0.950203 7.07155C1.01252 7.75626 1.21558 8.42148 1.54713 9.02707C1.87756 9.64104 2.31977 10.1905 2.8519 10.6481C3.39046 11.1092 3.99977 11.484 4.65737 11.7587C5.31964 12.0443 6.01705 12.2439 6.73195 12.3524C7.0913 12.4051 7.45341 12.4376 7.81653 12.45H8.09053H8.37595H8.94515C10.4652 12.4628 11.9853 12.466 13.5118 12.4884L14.1838 12.498L13.8315 13.0469L11.907 16.033L10.9496 17.5229L9.98571 19.0095L9.53067 18.7006L11.3867 16.4331L13.2476 14.1719L15.1167 11.9171C15.7397 11.165 16.3709 10.4193 16.9988 9.67677H16.989V9.66557V9.67677H16.9988C16.4182 10.4609 15.8441 11.2482 15.2586 12.0292L13.5053 14.3671L11.7439 16.7035L9.97429 19.0335L9.51925 18.7246L10.4391 17.2076L11.3557 15.6938L13.1856 12.6725L13.5118 13.2326C11.9918 13.255 10.4717 13.2582 8.94515 13.271H8.37595H8.09053C7.99104 13.271 7.89319 13.271 7.7937 13.271C7.397 13.2642 7.00107 13.2343 6.60799 13.1813C5.81534 13.078 5.04097 12.8679 4.30671 12.5572C3.56125 12.2501 2.86991 11.8294 2.25823 11.3106C1.64195 10.7851 1.12897 10.1532 0.744702 9.44634C0.353364 8.73646 0.111537 7.9566 0.0336046 7.15316C-0.0507313 6.35135 0.0240392 5.54109 0.253784 4.76718C0.371784 4.37833 0.53142 4.00285 0.730023 3.64699C0.926343 3.2943 1.15683 2.96097 1.41829 2.65163C1.94167 2.03879 2.57311 1.52331 3.28247 1.12978C4.69162 0.340856 6.29974 0.00960156 7.87035 0L12.437 0.030405L16.9956 0.0832135H17.6806L17.263 0.604899L15.9844 2.21636L14.6959 3.81662L14.6078 3.92544H14.4774L11.5416 3.87583L8.60592 3.81502C8.36127 3.81502 8.11663 3.80062 7.87688 3.80382C7.63846 3.8086 7.40075 3.83107 7.16578 3.87103C6.69392 3.94986 6.2407 4.11255 5.8284 4.35111C5.41439 4.59392 5.06547 4.93023 4.81068 5.33207C4.54879 5.73688 4.40288 6.20343 4.38826 6.68269Z" fill="url(#paint0_linear_15_1275)"/>
<defs>
<linearGradient id="paint0_linear_15_1275" x1="3.58257" y1="12.8997" x2="17.0943" y2="-0.872846" gradientUnits="userSpaceOnUse">
<stop offset="0.37" stop-color="#F6108C"/>
<stop offset="1" stop-color="#827DF4"/>
</linearGradient>
</defs>
</svg>
