<svg width="16" height="16" viewBox="0 0 16 16" fill="none" xmlns="http://www.w3.org/2000/svg">
<mask id="mask0_1_226" style="mask-type:alpha" maskUnits="userSpaceOnUse" x="0" y="0" width="16" height="16">
<rect width="16" height="16" fill="#999999"/>
</mask>
<g mask="url(#mask0_1_226)">
<path d="M7.33301 11.3335H8.66634V7.3335H7.33301V11.3335ZM7.99967 6.00016C8.18856 6.00016 8.3469 5.93627 8.47467 5.8085C8.60245 5.68072 8.66634 5.52238 8.66634 5.3335C8.66634 5.14461 8.60245 4.98627 8.47467 4.8585C8.3469 4.73072 8.18856 4.66683 7.99967 4.66683C7.81079 4.66683 7.65245 4.73072 7.52467 4.8585C7.3969 4.98627 7.33301 5.14461 7.33301 5.3335C7.33301 5.52238 7.3969 5.68072 7.52467 5.8085C7.65245 5.93627 7.81079 6.00016 7.99967 6.00016ZM7.99967 14.6668C7.07745 14.6668 6.21079 14.4918 5.39967 14.1418C4.58856 13.7918 3.88301 13.3168 3.28301 12.7168C2.68301 12.1168 2.20801 11.4113 1.85801 10.6002C1.50801 9.78905 1.33301 8.92238 1.33301 8.00016C1.33301 7.07794 1.50801 6.21127 1.85801 5.40016C2.20801 4.58905 2.68301 3.8835 3.28301 3.2835C3.88301 2.6835 4.58856 2.2085 5.39967 1.8585C6.21079 1.5085 7.07745 1.3335 7.99967 1.3335C8.9219 1.3335 9.78856 1.5085 10.5997 1.8585C11.4108 2.2085 12.1163 2.6835 12.7163 3.2835C13.3163 3.8835 13.7913 4.58905 14.1413 5.40016C14.4913 6.21127 14.6663 7.07794 14.6663 8.00016C14.6663 8.92238 14.4913 9.78905 14.1413 10.6002C13.7913 11.4113 13.3163 12.1168 12.7163 12.7168C12.1163 13.3168 11.4108 13.7918 10.5997 14.1418C9.78856 14.4918 8.9219 14.6668 7.99967 14.6668Z" fill="#999999"/>
</g>
</svg>
