<svg width="20" height="20" viewBox="0 0 19 20" fill="none" xmlns="http://www.w3.org/2000/svg">
<path d="M8.43821 0.557129C7.16117 2.28861 5.15836 4.96585 3.84544 6.70053H3.73942L3.89273 6.62692L1.40389 9.91065L1.19024 9.49138L2.69235 9.47058L2.4477 9.6066L2.52762 9.47378H2.69072L7.14486 9.42097H7.48247C7.50367 12.1686 7.53629 16.2429 7.53792 18.9681L7.14486 18.5809L11.0706 18.5713L10.6661 18.9681C10.6661 16.3485 10.6791 12.3446 10.6971 9.75703V9.38897H11.0673L15.5981 9.42257L15.3306 9.55219L17.9108 6.35167L18.1391 6.80615C17.0203 6.79495 15.9015 6.77254 14.7826 6.75654C11.6561 6.70373 7.81518 6.62372 4.70821 6.5229C5.82705 6.4893 6.94752 6.45409 8.06635 6.42849C11.4066 6.35327 15.4057 6.26846 18.7214 6.23485L18.3691 6.69573L15.8672 9.96346L15.7694 10.0915H15.5981L11.0673 10.1251L11.4392 9.75863L11.4538 12.0614C11.4636 13.7625 11.4636 17.6303 11.4702 19.3666C10.9303 19.3666 7.28839 19.357 6.74038 19.3554C6.74038 19.1874 6.74038 16.907 6.74038 16.667C6.74038 15.2155 6.77627 11.2629 6.78768 9.75863L7.12855 10.0931L2.69887 10.0339L2.94352 9.89945L2.85544 10.0371L0.650391 10.0067C0.713998 9.94906 3.41486 6.59491 3.58611 6.39808L3.64809 6.32127H3.74595L3.59264 6.39648C4.96427 4.75301 7.06168 2.17339 8.43821 0.557129Z" fill="#FC7461"/>
</svg>
